<svg version="1.2" xmlns="http://www.w3.org/2000/svg" viewBox="0 0 733 256" width="733" height="256"><style>.a{fill:#2366d1}.b{fill:#609dff}.c{fill:#a4c7ff}</style><path class="a" d="m110.9 128l110.8 64-110.8 64-110.9-64z"/><path class="b" d="m110.9 64l110.8 64-110.8 64-110.9-64z"/><path class="c" d="m110.9 0l110.8 64-110.8 64-110.9-64z"/><path  d="m361.8 153.4q0 17.9-13.7 28.4-13.6 10.4-33 10.4-13.1 0-21.6-6.5-8.4-6.7-9.4-11.4 2.1-6.1 8.8-13.8 6.7-7.6 12.1-9.3 9.6 6.1 17.8 27.4 12.1-0.4 12.1-13.2 0-7.1-5.8-17.4-5.6-10.4-12.3-19.4-6.7-9.2-12.5-20.4-5.6-11.3-5.6-20.1 0-14.2 11.4-22.4 11.5-8.2 25.9-8.2 14.4 0 22.2 6.1 8 6.2 8 14 0 7.9-5.9 16.1-6 8.2-12 13.1l-5.9 4.8q2.2 3 5.4 7.7 3.1 4.6 8.6 15.8 5.4 11.2 5.4 18.3zm-14.4-61.2q2.6-2.4 4.7-5.8 2-3.5 2-7.3 0-3.9-4.5-6.5-4.4-2.6-10.8-2.6-6.1 0-10.4 3-4.1 2.8-4.1 6.9 0 3.9 2.6 9.3 2.8 5.2 5.4 8.8l2.8 3.5q1.8-0.9 5.8-3.9 4.1-3 6.5-5.4zm41.8 100q-6.5 0-10.1-3.9-3.5-3.9-3.5-10.4 0-6.6 4.8-11.2 4.9-4.9 11.4-4.9 6.7 0 10.3 3.9 3.5 3.8 3.5 10.3 0 6.3-5 11.4-4.9 4.8-11.4 4.8zm151.5-11.2q-2.2 5.8-7 9.2-4.7 3.3-11.2 3.3-6.4 0-19.3-7.8-12.7-7.8-20.3-10.1-5 6.7-11.4 11.2-6.3 4.5-8.8 4.5-1.8 0-7.4-8-5.6-8.2-5.6-11.8 0-2 5.8-6.1 5.9-4.1 12.5-5.6 4.6-11.4 9.7-33.6 5-22.4 7.8-46.1 0-3-2.1-7.1-1.8-4.3-3.9-6.9l-1.8-2.7 0.5-2.8q11.2-3.1 36.8-3.1 2.4 4.1 2.4 12.5 0 8.4-4.8 25-4.9 16.6-13.5 39.9-8.4 23.2-9.7 27.5 0.8 0.2 4.7 1.3 3.9 1.1 5 1.5 1.3 0.2 4.9 1.1 3.5 0.7 5.6 1.1 2 0.2 5.4 0.6 5.8 0.9 10.8 0.9 5.2 0 7.5-2.6l5.2-9.7 6.2 1.5q0 12.1-4 22.9zm11.1-5q0-8 4.8-27.3 4.9-19.4 4.9-23.7 0-4.4-6.8-11.7l0.2-2.4q12.7-2.7 33.4-2.7 1 2.5 1 8.8 0 6.4-5.3 27.1-5.2 20.7-5.2 25.7 0 5.1 3.7 5.1 5.5 0 12.6-3.9 0.7-4.5 3.7-17.2 6.7-29.9 6.7-42.8 6.5-2.6 23.5-2.6h3.6q0 8.8-5.3 34.4-5.2 25.4-5.2 29.8 0 4.3 1.9 4.3 1.1 0 10.6-4.4l3.6 5.9q-16.6 13.8-29.2 13.8-5.9 0-10.2-3.3-4.1-3.4-4.7-8.8-15.1 12.3-27.4 12.3-6.5 0-10.8-4.3-4.1-4.3-4.1-12.1zm117.7 16.2q-12.9 0-20.1-8.9-7.3-9.2-7.3-25.4 0-20.7 11-35.7 11.2-14.9 30.8-14.9l6.7 0.4q3.2-1.7 7.1-1.7 14.7 0 14.7 27.8 7.7-0.4 15.5-2l3-0.8 1.1 7.3q-6.1 2.6-16.6 4.7l-3.7 0.7q-3.6 19.6-14.4 34.2-10.8 14.3-27.8 14.3zm10.1-16q7.8 0 14-10.1 6.3-10.1 8.8-21.3-20 0-20-14.9 0-6 2.4-11.2l1-1.9q-0.8-0.3-1.9-0.3-1.1 0-1.7 0.3-4.7 3-8.8 14-4.1 11-4.1 25.2 0 20.2 10.3 20.2z"/></svg>